<?xml version="1.0" standalone="no"?>
<!DOCTYPE svg PUBLIC "-//W3C//DTD SVG 20010904//EN"
 "http://www.w3.org/TR/2001/REC-SVG-20010904/DTD/svg10.dtd">
<svg version="1.0" xmlns="http://www.w3.org/2000/svg"
 width="512.000000pt" height="512.000000pt" viewBox="0 0 512.000000 512.000000"
 preserveAspectRatio="xMidYMid meet">

<g transform="translate(0.000000,512.000000) scale(0.100000,-0.100000)"
fill="#000000" stroke="none">
<path d="M2405 5050 c-1115 -65 -2070 -892 -2290 -1985 -40 -198 -49 -299 -48
-520 1 -224 13 -337 59 -543 144 -649 562 -1227 1138 -1576 527 -320 1144
-433 1749 -321 497 92 947 328 1305 686 514 512 769 1184 730 1922 l-8 152
-548 547 -547 548 3 -863 c2 -474 0 -1066 -4 -1315 l-6 -452 -104 0 -104 0 0
1179 0 1179 -55 4 c-151 13 -250 167 -201 316 31 91 124 161 216 162 l45 0
-434 434 -434 434 -96 6 c-195 12 -239 13 -366 6z m1075 -917 c-104 -118 -108
-285 -8 -397 l40 -46 -1074 0 -1073 0 -50 24 c-90 41 -135 114 -135 218 0 103
61 189 159 224 29 10 257 13 1105 14 l1068 0 -32 -37z m190 -1848 l0 -1335
-1060 0 -1060 0 0 1335 0 1335 1060 0 1060 0 0 -1335z"/>
<path d="M1750 3050 l0 -180 180 0 180 0 0 180 0 180 -180 0 -180 0 0 -180z
m303 61 c-1 -5 -34 -54 -74 -110 l-71 -101 -49 41 c-51 42 -53 56 -15 89 13
10 19 10 31 0 9 -7 17 -11 18 -9 2 2 25 35 51 72 l48 68 31 -20 c18 -12 31
-25 30 -30z"/>
<path d="M2320 3125 l0 -35 575 0 575 0 0 35 0 35 -575 0 -575 0 0 -35z"/>
<path d="M2320 2970 l0 -30 285 0 285 0 0 30 0 30 -285 0 -285 0 0 -30z"/>
<path d="M1750 2540 l0 -180 180 0 180 0 0 180 0 180 -180 0 -180 0 0 -180z
m157 78 l23 -21 25 23 26 24 26 -27 27 -26 -24 -26 -23 -25 23 -25 24 -26 -27
-26 -26 -27 -26 24 -25 23 -25 -23 -26 -24 -26 27 -27 26 24 26 23 25 -23 25
-23 25 23 25 c28 30 28 30 57 3z"/>
<path d="M2320 2620 l0 -30 575 0 575 0 0 30 0 30 -575 0 -575 0 0 -30z"/>
<path d="M2320 2460 l0 -30 285 0 285 0 0 30 0 30 -285 0 -285 0 0 -30z"/>
<path d="M1750 2030 l0 -180 180 0 180 0 0 180 0 180 -180 0 -180 0 0 -180z
m281 90 l28 -21 -75 -104 c-83 -115 -77 -113 -143 -56 l-34 30 25 29 c18 21
29 27 39 21 22 -14 23 -13 70 56 24 35 48 65 52 65 5 0 22 -9 38 -20z"/>
<path d="M2320 2110 l0 -30 575 0 575 0 0 30 0 30 -575 0 -575 0 0 -30z"/>
<path d="M2320 1955 l0 -35 285 0 285 0 0 35 0 35 -285 0 -285 0 0 -35z"/>
<path d="M1750 1525 l0 -185 180 0 180 0 0 185 0 185 -180 0 -180 0 0 -185z
m300 64 c0 -6 -32 -55 -71 -110 l-71 -99 -49 38 c-26 20 -48 39 -48 42 0 3 11
18 24 35 19 23 27 27 37 17 6 -6 15 -12 18 -12 4 0 28 31 54 70 l48 70 29 -21
c16 -11 29 -25 29 -30z"/>
<path d="M2320 1607 l0 -37 575 0 575 0 0 30 0 30 -252 0 c-139 0 -398 3 -575
7 l-323 6 0 -36z"/>
<path d="M2320 1445 l0 -35 285 0 285 0 0 35 0 35 -285 0 -285 0 0 -35z"/>
</g>
</svg>
